<svg width="50" height="50" viewBox="0 0 50 50" fill="none" xmlns="http://www.w3.org/2000/svg">
<path d="M37.5 27.0833V41.6666H8.33332V12.5H18.7917C18.8958 11.0208 19.25 9.62496 19.7917 8.33329H8.33332C6.04166 8.33329 4.16666 10.2083 4.16666 12.5V41.6666C4.16666 43.9583 6.04166 45.8333 8.33332 45.8333H37.5C39.7917 45.8333 41.6667 43.9583 41.6667 41.6666V31.25L37.5 27.0833ZM34.375 37.5H11.4583L17.1875 30.1458L21.2708 35.0625L27 27.6875L34.375 37.5ZM40.2083 18.5208C41.125 17.0625 41.6667 15.375 41.6667 13.5416C41.6667 8.35413 37.4792 4.16663 32.2917 4.16663C27.1042 4.16663 22.9167 8.35413 22.9167 13.5416C22.9167 18.7291 27.1042 22.9166 32.2708 22.9166C34.1042 22.9166 35.8125 22.375 37.25 21.4583L43.75 27.9583L46.7083 25L40.2083 18.5208ZM32.2917 18.75C29.4167 18.75 27.0833 16.4166 27.0833 13.5416C27.0833 10.6666 29.4167 8.33329 32.2917 8.33329C35.1667 8.33329 37.5 10.6666 37.5 13.5416C37.5 16.4166 35.1667 18.75 32.2917 18.75Z" fill="#B8E5FF"/>
</svg>
