<svg width="60" height="60" viewBox="0 0 60 60" fill="none" xmlns="http://www.w3.org/2000/svg">
<rect width="60" height="60" rx="10" fill="#53B8F0"/>
<path d="M38.625 37.6094C38.625 35.7188 37.9609 34.2266 36.6328 33.1328C35.3047 32.0234 32.875 30.9766 29.3438 29.9922C25.8125 28.9922 23.2344 27.9062 21.6094 26.7344C19.2969 25.0781 18.1406 22.9062 18.1406 20.2188C18.1406 17.6094 19.2109 15.4922 21.3516 13.8672C23.5078 12.2266 26.2578 11.4062 29.6016 11.4062C31.8672 11.4062 33.8906 11.8438 35.6719 12.7188C37.4688 13.5937 38.8594 14.8125 39.8438 16.375C40.8281 17.9375 41.3203 19.6797 41.3203 21.6016H38.4141C38.4141 19.2734 37.6172 17.4062 36.0234 16C34.4297 14.5781 32.2891 13.8672 29.6016 13.8672C26.9922 13.8672 24.9141 14.4531 23.3672 15.625C21.8203 16.7812 21.0469 18.2969 21.0469 20.1719C21.0469 21.9062 21.7422 23.3203 23.1328 24.4141C24.5234 25.5078 26.75 26.4766 29.8125 27.3203C32.875 28.1484 35.1953 29.0156 36.7734 29.9219C38.3516 30.8125 39.5391 31.8828 40.3359 33.1328C41.1328 34.3828 41.5312 35.8594 41.5312 37.5625C41.5312 40.25 40.4531 42.4062 38.2969 44.0312C36.1562 45.6562 33.3281 46.4688 29.8125 46.4688C27.4062 46.4688 25.1953 46.0391 23.1797 45.1797C21.1797 44.3203 19.6562 43.1172 18.6094 41.5703C17.5781 40.0234 17.0625 38.25 17.0625 36.25H19.9453C19.9453 38.6562 20.8438 40.5547 22.6406 41.9453C24.4375 43.3359 26.8281 44.0312 29.8125 44.0312C32.4688 44.0312 34.6016 43.4453 36.2109 42.2734C37.8203 41.1016 38.625 39.5469 38.625 37.6094Z" fill="white"/>
</svg>
